<?xml version="1.0" encoding="utf-8"?>
    
<!DOCTYPE svg PUBLIC "-//W3C//DTD SVG 1.1//EN" "http://www.w3.org/Graphics/SVG/1.1/DTD/svg11.dtd">
<svg version="1.1" id="Layer_1" xmlns="http://www.w3.org/2000/svg" xmlns:xlink="http://www.w3.org/1999/xlink" x="0px" y="0px"
	 width="40px" height="40px" viewBox="0 0 40 40" enable-background="new 0 0 40 40" xml:space="preserve">
<circle fill="#35495E" cx="20" cy="20" r="20"/>
<g id="g3011" transform="translate(39.137,49.474)">
	<path id="path3013" fill="#FFFFFF" d="M-8.456-35.983c-0.391-0.763-0.978-1.383-1.726-1.851c-0.777-0.479-1.679-0.809-2.732-1.008
		c-1.059-0.19-2.295-0.283-3.714-0.296l-6.57,0.005c-0.683,0.008-1.352,0.543-1.509,1.2l-4.43,19.26
		c-0.152,0.659,0.274,1.204,0.954,1.204h3.147c0.681,0,1.355-0.53,1.508-1.204l1.084-4.673c0.145-0.654,0.818-1.195,1.5-1.195h0.9
		c3.85-0.003,6.835-0.791,8.98-2.367c2.143-1.573,3.214-3.658,3.208-6.237C-7.851-34.279-8.047-35.226-8.456-35.983 M-15.252-29.691
		c-0.949,0.694-2.264,1.042-3.971,1.042h-0.772c-0.68,0-1.109-0.54-0.959-1.202l0.948-4.083c0.144-0.658,0.823-1.204,1.503-1.197
		l1.03-0.006c1.203,0,2.118,0.206,2.734,0.615c0.608,0.398,0.917,1.028,0.907,1.875C-13.815-31.373-14.298-30.387-15.252-29.691"/>
</g>
</svg>
