<?xml version="1.0" encoding="utf-8"?>
    
<!DOCTYPE svg PUBLIC "-//W3C//DTD SVG 1.1//EN" "http://www.w3.org/Graphics/SVG/1.1/DTD/svg11.dtd">
<svg version="1.1" id="Layer_1" xmlns="http://www.w3.org/2000/svg" xmlns:xlink="http://www.w3.org/1999/xlink" x="0px" y="0px"
	 width="40px" height="39.999px" viewBox="0 0 40 39.999" enable-background="new 0 0 40 39.999" xml:space="preserve">
<circle fill="#34495E" cx="20" cy="20" r="20"/>
<path fill="#FFFFFF" d="M25.026,37.938c0-0.673,0.024-2.885,0.024-5.625c0-1.914-0.656-3.166-1.396-3.798
	c4.579-0.506,9.388-2.241,9.388-10.118c0-2.238-0.797-4.067-2.114-5.502c0.213-0.518,0.918-2.602-0.202-5.425
	c0,0-1.725-0.552-5.649,2.102c-1.643-0.454-3.397-0.682-5.145-0.689c-1.749,0.007-3.507,0.235-5.146,0.689
	c-3.926-2.653-5.652-2.102-5.652-2.102c-1.118,2.823-0.413,4.906-0.202,5.425c-1.314,1.435-2.117,3.264-2.117,5.502
	c0,7.857,4.801,9.617,9.365,10.133c-0.588,0.513-1.118,1.417-1.305,2.741c-1.172,0.527-4.149,1.43-5.983-1.704
	c0,0-1.084-1.969-3.149-2.115c0,0-2.006-0.023-0.141,1.248c0,0,1.348,0.63,2.283,3c0,0,1.208,3.987,6.924,2.75
	c0.01,1.711,0.028,2.999,0.028,3.488c0,0.478-0.295,1.024-1.07,1.019C15.714,39.565,17.688,40,19.835,40
	c2.145,0,4.32-0.342,6.251-1.042C25.312,38.966,25.026,38.417,25.026,37.938z"/>
</svg>
