<?xml version="1.0" encoding="utf-8"?>
    
<!DOCTYPE svg PUBLIC "-//W3C//DTD SVG 1.1//EN" "http://www.w3.org/Graphics/SVG/1.1/DTD/svg11.dtd">
<svg version="1.1" id="Rectangle_1_copy_1_" xmlns="http://www.w3.org/2000/svg" xmlns:xlink="http://www.w3.org/1999/xlink"
	 x="0px" y="0px" width="40px" height="40px" viewBox="257 257 40 40" enable-background="new 257 257 40 40" xml:space="preserve">
<circle fill="#34495E" cx="277" cy="277" r="20"/>
<g id="Rectangle_1_copy">
	<g>
		<path fill="#FFFFFF" d="M280.855,266.314h-5.629c-0.747,0-1.547,0.087-2.401,0.262c-0.863,0.202-1.694,0.634-2.494,1.295
			c-1.165,1.13-1.748,2.389-1.748,3.777c0,1.148,0.411,2.155,1.233,3.019c0.785,0.928,1.927,1.401,3.426,1.419
			c0.283,0,0.584-0.018,0.904-0.055c-0.053,0.148-0.11,0.31-0.172,0.485c-0.071,0.167-0.106,0.375-0.106,0.624
			c0,0.416,0.092,0.771,0.278,1.067c0.159,0.305,0.339,0.591,0.542,0.859c-0.657,0.019-1.482,0.101-2.476,0.247
			c-1.003,0.175-1.961,0.523-2.873,1.046c-0.812,0.486-1.372,1.05-1.682,1.692c-0.319,0.643-0.479,1.225-0.479,1.747
			c0,1.073,0.491,1.995,1.472,2.766c0.972,0.826,2.444,1.248,4.416,1.267c2.355-0.037,4.157-0.603,5.406-1.696
			c1.204-1.057,1.807-2.27,1.807-3.639c-0.018-0.965-0.237-1.746-0.658-2.344c-0.447-0.588-0.968-1.125-1.562-1.612l-0.955-0.786
			c-0.138-0.138-0.28-0.298-0.426-0.482c-0.172-0.193-0.258-0.437-0.258-0.73c0-0.303,0.084-0.57,0.251-0.8
			c0.143-0.221,0.297-0.418,0.465-0.593c0.293-0.257,0.57-0.51,0.83-0.758c0.235-0.249,0.457-0.519,0.667-0.813
			c0.428-0.606,0.65-1.415,0.667-2.426c0-0.551-0.062-1.034-0.186-1.447c-0.15-0.414-0.322-0.772-0.517-1.075
			c-0.204-0.322-0.412-0.593-0.624-0.813c-0.221-0.211-0.419-0.372-0.596-0.482h1.736L280.855,266.314z M277.769,281.726
			c0.466,0.533,0.699,1.158,0.699,1.875c0,0.883-0.341,1.604-1.021,2.165c-0.699,0.569-1.712,0.863-3.038,0.882
			c-1.479-0.019-2.644-0.349-3.495-0.992c-0.896-0.644-1.344-1.462-1.344-2.454c0-0.506,0.103-0.938,0.309-1.296
			c0.179-0.341,0.399-0.626,0.659-0.855c0.269-0.221,0.533-0.391,0.793-0.51c0.26-0.11,0.461-0.193,0.605-0.248
			c0.609-0.185,1.205-0.317,1.788-0.4c0.591-0.055,0.958-0.073,1.102-0.055c0.242,0,0.453,0.009,0.632,0.027
			C276.505,280.6,277.276,281.22,277.769,281.726z M276.855,273.41c-0.068,0.378-0.221,0.746-0.459,1.105
			c-0.494,0.507-1.111,0.774-1.852,0.801c-0.586,0-1.108-0.179-1.564-0.539c-0.456-0.359-0.828-0.796-1.117-1.312
			c-0.596-1.105-0.894-2.169-0.894-3.191c-0.019-0.773,0.186-1.473,0.612-2.1c0.506-0.598,1.14-0.907,1.903-0.925
			c0.577,0.019,1.086,0.189,1.53,0.511c0.435,0.34,0.785,0.783,1.051,1.326c0.568,1.133,0.852,2.256,0.852,3.371
			C276.917,272.715,276.896,273.033,276.855,273.41z M289.636,275.123v-0.015h-2.961v-3.017h-1.732v3.017h-2.979v1.684h0.02v0.064
			h2.96v2.96h1.732v-2.96h3.033v-1.733H289.636z"/>
	</g>
</g>
</svg>
