<?xml version="1.0" encoding="utf-8"?>
    
<!DOCTYPE svg PUBLIC "-//W3C//DTD SVG 1.1//EN" "http://www.w3.org/Graphics/SVG/1.1/DTD/svg11.dtd">
<svg version="1.1" id="Layer_1" xmlns="http://www.w3.org/2000/svg" xmlns:xlink="http://www.w3.org/1999/xlink" x="0px" y="0px"
	 width="40px" height="40px" viewBox="151.084 151.084 40 40" enable-background="new 151.084 151.084 40 40" xml:space="preserve">
<circle fill="#35495E" cx="171.084" cy="171.084" r="20"/>
<path fill="#FFFFFF" d="M183,163.834c-0.86,0.381-1.785,0.639-2.756,0.755c0.991-0.594,1.751-1.534,2.109-2.654
	c-0.927,0.55-1.953,0.949-3.046,1.164c-0.875-0.933-2.121-1.515-3.501-1.515c-2.649,0-4.797,2.147-4.797,4.796
	c0,0.376,0.042,0.742,0.125,1.093c-3.987-0.2-7.521-2.11-9.887-5.012c-0.413,0.708-0.649,1.532-0.649,2.411
	c0,1.665,0.847,3.132,2.134,3.993c-0.787-0.025-1.526-0.241-2.173-0.6c0,0.02,0,0.04,0,0.061c0,2.324,1.653,4.262,3.848,4.704
	c-0.402,0.109-0.826,0.168-1.264,0.168c-0.309,0-0.609-0.03-0.902-0.086c0.61,1.905,2.382,3.292,4.481,3.331
	c-1.642,1.286-3.71,2.054-5.958,2.054c-0.387,0-0.769-0.023-1.144-0.067c2.123,1.361,4.644,2.155,7.353,2.155
	c8.823,0,13.648-7.31,13.648-13.648c0-0.208-0.005-0.415-0.014-0.621C181.543,165.641,182.357,164.796,183,163.834z"/>
</svg>
